<mxfile host="app.diagrams.net" modified="2022-02-16T12:08:44.609Z" agent="5.0 (Macintosh; Intel Mac OS X 10_15_7) AppleWebKit/537.36 (KHTML, like Gecko) Chrome/97.0.4692.71 Safari/537.36" etag="WaSnJjwLtT3hNqB5W3MZ" version="16.5.6" type="github">
  <diagram id="Vrcon2i8AkXRv5Q0cP_A" name="第 1 页">
    <mxGraphModel dx="812" dy="599" grid="1" gridSize="10" guides="1" tooltips="1" connect="1" arrows="1" fold="1" page="1" pageScale="1" pageWidth="827" pageHeight="1169" math="0" shadow="0">
      <root>
        <mxCell id="0" />
        <mxCell id="1" parent="0" />
        <mxCell id="1BIaOTCcWGXi_crnkS1Q-1" style="edgeStyle=none;html=1;entryX=0.5;entryY=0;entryDx=0;entryDy=0;strokeWidth=2;opacity=40;sketch=0;" parent="1" source="1BIaOTCcWGXi_crnkS1Q-4" target="1BIaOTCcWGXi_crnkS1Q-6" edge="1">
          <mxGeometry relative="1" as="geometry" />
        </mxCell>
        <mxCell id="1BIaOTCcWGXi_crnkS1Q-2" style="edgeStyle=none;html=1;entryX=0.5;entryY=0;entryDx=0;entryDy=0;strokeWidth=2;opacity=40;sketch=0;" parent="1" source="1BIaOTCcWGXi_crnkS1Q-4" target="1BIaOTCcWGXi_crnkS1Q-8" edge="1">
          <mxGeometry relative="1" as="geometry" />
        </mxCell>
        <mxCell id="1BIaOTCcWGXi_crnkS1Q-3" style="edgeStyle=none;html=1;entryX=0.5;entryY=0;entryDx=0;entryDy=0;strokeWidth=2;opacity=40;sketch=0;" parent="1" source="1BIaOTCcWGXi_crnkS1Q-4" target="1BIaOTCcWGXi_crnkS1Q-10" edge="1">
          <mxGeometry relative="1" as="geometry" />
        </mxCell>
        <mxCell id="1BIaOTCcWGXi_crnkS1Q-4" value="百年中国大学校园文学" style="rounded=0;whiteSpace=wrap;html=1;fillColor=#f5f5f5;fontColor=#333333;strokeColor=#666666;fontSize=14;fontStyle=1" parent="1" vertex="1">
          <mxGeometry x="310" y="40" width="170" height="60" as="geometry" />
        </mxCell>
        <mxCell id="1BIaOTCcWGXi_crnkS1Q-5" style="edgeStyle=none;html=1;strokeWidth=2;opacity=40;sketch=0;" parent="1" source="1BIaOTCcWGXi_crnkS1Q-6" target="1BIaOTCcWGXi_crnkS1Q-17" edge="1">
          <mxGeometry relative="1" as="geometry" />
        </mxCell>
        <mxCell id="1BIaOTCcWGXi_crnkS1Q-6" value="小说" style="ellipse;whiteSpace=wrap;html=1;fillColor=#dae8fc;strokeColor=#6c8ebf;fontSize=14;" parent="1" vertex="1">
          <mxGeometry x="190" y="150" width="100" height="50" as="geometry" />
        </mxCell>
        <mxCell id="1BIaOTCcWGXi_crnkS1Q-7" style="edgeStyle=none;html=1;strokeWidth=2;opacity=40;sketch=0;" parent="1" source="1BIaOTCcWGXi_crnkS1Q-8" target="1BIaOTCcWGXi_crnkS1Q-17" edge="1">
          <mxGeometry relative="1" as="geometry" />
        </mxCell>
        <mxCell id="1BIaOTCcWGXi_crnkS1Q-8" value="散文" style="ellipse;whiteSpace=wrap;html=1;fillColor=#dae8fc;strokeColor=#6c8ebf;fontSize=14;" parent="1" vertex="1">
          <mxGeometry x="345" y="150" width="100" height="50" as="geometry" />
        </mxCell>
        <mxCell id="1BIaOTCcWGXi_crnkS1Q-9" style="edgeStyle=none;html=1;strokeWidth=2;opacity=40;sketch=0;" parent="1" source="1BIaOTCcWGXi_crnkS1Q-10" target="1BIaOTCcWGXi_crnkS1Q-17" edge="1">
          <mxGeometry relative="1" as="geometry" />
        </mxCell>
        <mxCell id="1BIaOTCcWGXi_crnkS1Q-10" value="诗歌" style="ellipse;whiteSpace=wrap;html=1;fillColor=#dae8fc;strokeColor=#6c8ebf;fontSize=14;" parent="1" vertex="1">
          <mxGeometry x="510" y="150" width="100" height="50" as="geometry" />
        </mxCell>
        <mxCell id="1BIaOTCcWGXi_crnkS1Q-11" style="edgeStyle=none;html=1;strokeWidth=2;opacity=40;sketch=0;" parent="1" source="1BIaOTCcWGXi_crnkS1Q-17" target="1BIaOTCcWGXi_crnkS1Q-19" edge="1">
          <mxGeometry relative="1" as="geometry" />
        </mxCell>
        <mxCell id="1BIaOTCcWGXi_crnkS1Q-12" style="edgeStyle=none;html=1;strokeWidth=2;opacity=40;sketch=0;" parent="1" source="1BIaOTCcWGXi_crnkS1Q-17" target="1BIaOTCcWGXi_crnkS1Q-21" edge="1">
          <mxGeometry relative="1" as="geometry" />
        </mxCell>
        <mxCell id="1BIaOTCcWGXi_crnkS1Q-13" style="edgeStyle=none;html=1;strokeWidth=2;opacity=40;sketch=0;" parent="1" source="1BIaOTCcWGXi_crnkS1Q-17" target="1BIaOTCcWGXi_crnkS1Q-23" edge="1">
          <mxGeometry relative="1" as="geometry" />
        </mxCell>
        <mxCell id="1BIaOTCcWGXi_crnkS1Q-14" style="edgeStyle=none;html=1;strokeWidth=2;opacity=40;sketch=0;" parent="1" source="1BIaOTCcWGXi_crnkS1Q-17" target="1BIaOTCcWGXi_crnkS1Q-25" edge="1">
          <mxGeometry relative="1" as="geometry" />
        </mxCell>
        <mxCell id="1BIaOTCcWGXi_crnkS1Q-15" style="edgeStyle=none;html=1;strokeWidth=2;opacity=40;sketch=0;" parent="1" source="1BIaOTCcWGXi_crnkS1Q-17" target="1BIaOTCcWGXi_crnkS1Q-27" edge="1">
          <mxGeometry relative="1" as="geometry" />
        </mxCell>
        <mxCell id="1BIaOTCcWGXi_crnkS1Q-16" style="edgeStyle=none;html=1;strokeWidth=2;opacity=40;sketch=0;" parent="1" source="1BIaOTCcWGXi_crnkS1Q-17" target="1BIaOTCcWGXi_crnkS1Q-29" edge="1">
          <mxGeometry relative="1" as="geometry" />
        </mxCell>
        <mxCell id="1BIaOTCcWGXi_crnkS1Q-17" value="内容展示与特征呈现" style="rounded=1;whiteSpace=wrap;html=1;fillColor=#fff2cc;strokeColor=#d6b656;fontSize=19;" parent="1" vertex="1">
          <mxGeometry x="100" y="240" width="610" height="60" as="geometry" />
        </mxCell>
        <mxCell id="1BIaOTCcWGXi_crnkS1Q-18" style="edgeStyle=none;html=1;strokeWidth=2;opacity=40;sketch=0;" parent="1" source="1BIaOTCcWGXi_crnkS1Q-19" target="1BIaOTCcWGXi_crnkS1Q-31" edge="1">
          <mxGeometry relative="1" as="geometry" />
        </mxCell>
        <mxCell id="1BIaOTCcWGXi_crnkS1Q-19" value="五四时期" style="shape=process;whiteSpace=wrap;html=1;backgroundOutline=1;fillColor=#b1ddf0;strokeColor=#10739e;gradientColor=#ffffff;" parent="1" vertex="1">
          <mxGeometry x="80" y="330" width="90" height="40" as="geometry" />
        </mxCell>
        <mxCell id="1BIaOTCcWGXi_crnkS1Q-20" style="edgeStyle=none;html=1;strokeWidth=2;opacity=40;sketch=0;" parent="1" source="1BIaOTCcWGXi_crnkS1Q-21" target="1BIaOTCcWGXi_crnkS1Q-33" edge="1">
          <mxGeometry relative="1" as="geometry" />
        </mxCell>
        <mxCell id="1BIaOTCcWGXi_crnkS1Q-21" value="西南联大时期" style="shape=process;whiteSpace=wrap;html=1;backgroundOutline=1;fillColor=#b1ddf0;strokeColor=#10739e;gradientColor=#ffffff;" parent="1" vertex="1">
          <mxGeometry x="180" y="330" width="95" height="40" as="geometry" />
        </mxCell>
        <mxCell id="1BIaOTCcWGXi_crnkS1Q-22" style="edgeStyle=none;html=1;strokeWidth=2;opacity=40;sketch=0;" parent="1" source="1BIaOTCcWGXi_crnkS1Q-23" target="1BIaOTCcWGXi_crnkS1Q-35" edge="1">
          <mxGeometry relative="1" as="geometry" />
        </mxCell>
        <mxCell id="1BIaOTCcWGXi_crnkS1Q-23" value="延安时期" style="shape=process;whiteSpace=wrap;html=1;backgroundOutline=1;fillColor=#b1ddf0;strokeColor=#10739e;gradientColor=#ffffff;" parent="1" vertex="1">
          <mxGeometry x="295" y="330" width="90" height="40" as="geometry" />
        </mxCell>
        <mxCell id="1BIaOTCcWGXi_crnkS1Q-24" style="edgeStyle=none;html=1;strokeWidth=2;opacity=40;sketch=0;" parent="1" source="1BIaOTCcWGXi_crnkS1Q-25" target="1BIaOTCcWGXi_crnkS1Q-37" edge="1">
          <mxGeometry relative="1" as="geometry" />
        </mxCell>
        <mxCell id="1BIaOTCcWGXi_crnkS1Q-25" value="十七年时期" style="shape=process;whiteSpace=wrap;html=1;backgroundOutline=1;fillColor=#b1ddf0;strokeColor=#10739e;gradientColor=#ffffff;" parent="1" vertex="1">
          <mxGeometry x="405" y="330" width="90" height="40" as="geometry" />
        </mxCell>
        <mxCell id="1BIaOTCcWGXi_crnkS1Q-26" style="edgeStyle=none;html=1;strokeWidth=2;opacity=40;sketch=0;" parent="1" source="1BIaOTCcWGXi_crnkS1Q-27" target="1BIaOTCcWGXi_crnkS1Q-39" edge="1">
          <mxGeometry relative="1" as="geometry" />
        </mxCell>
        <mxCell id="1BIaOTCcWGXi_crnkS1Q-27" value="1980年代" style="shape=process;whiteSpace=wrap;html=1;backgroundOutline=1;fillColor=#b1ddf0;strokeColor=#10739e;gradientColor=#ffffff;" parent="1" vertex="1">
          <mxGeometry x="515" y="330" width="90" height="40" as="geometry" />
        </mxCell>
        <mxCell id="1BIaOTCcWGXi_crnkS1Q-28" style="edgeStyle=none;html=1;strokeWidth=2;opacity=40;sketch=0;" parent="1" source="1BIaOTCcWGXi_crnkS1Q-29" target="1BIaOTCcWGXi_crnkS1Q-41" edge="1">
          <mxGeometry relative="1" as="geometry" />
        </mxCell>
        <mxCell id="1BIaOTCcWGXi_crnkS1Q-29" value="1990年代以来" style="shape=process;whiteSpace=wrap;html=1;backgroundOutline=1;fillColor=#b1ddf0;strokeColor=#10739e;gradientColor=#ffffff;" parent="1" vertex="1">
          <mxGeometry x="625" y="330" width="110" height="40" as="geometry" />
        </mxCell>
        <mxCell id="1BIaOTCcWGXi_crnkS1Q-30" style="edgeStyle=none;html=1;strokeWidth=2;opacity=40;sketch=0;" parent="1" source="1BIaOTCcWGXi_crnkS1Q-31" target="1BIaOTCcWGXi_crnkS1Q-43" edge="1">
          <mxGeometry relative="1" as="geometry" />
        </mxCell>
        <mxCell id="1BIaOTCcWGXi_crnkS1Q-31" value="民族大义" style="shape=process;whiteSpace=wrap;html=1;backgroundOutline=1;fillColor=#d0cee2;strokeColor=#56517e;gradientColor=#ffffff;gradientDirection=north;" parent="1" vertex="1">
          <mxGeometry x="80" y="390" width="90" height="40" as="geometry" />
        </mxCell>
        <mxCell id="1BIaOTCcWGXi_crnkS1Q-32" style="edgeStyle=none;html=1;strokeWidth=2;opacity=40;sketch=0;" parent="1" source="1BIaOTCcWGXi_crnkS1Q-33" target="1BIaOTCcWGXi_crnkS1Q-43" edge="1">
          <mxGeometry relative="1" as="geometry" />
        </mxCell>
        <mxCell id="1BIaOTCcWGXi_crnkS1Q-33" value="为国求知" style="shape=process;whiteSpace=wrap;html=1;backgroundOutline=1;fillColor=#d0cee2;strokeColor=#56517e;gradientColor=#ffffff;gradientDirection=north;" parent="1" vertex="1">
          <mxGeometry x="180" y="390" width="95" height="40" as="geometry" />
        </mxCell>
        <mxCell id="1BIaOTCcWGXi_crnkS1Q-34" style="edgeStyle=none;html=1;strokeWidth=2;opacity=40;sketch=0;" parent="1" source="1BIaOTCcWGXi_crnkS1Q-35" target="1BIaOTCcWGXi_crnkS1Q-43" edge="1">
          <mxGeometry relative="1" as="geometry" />
        </mxCell>
        <mxCell id="1BIaOTCcWGXi_crnkS1Q-35" value="向往光明" style="shape=process;whiteSpace=wrap;html=1;backgroundOutline=1;fillColor=#d0cee2;strokeColor=#56517e;gradientColor=#ffffff;gradientDirection=north;" parent="1" vertex="1">
          <mxGeometry x="295" y="390" width="90" height="40" as="geometry" />
        </mxCell>
        <mxCell id="1BIaOTCcWGXi_crnkS1Q-36" style="edgeStyle=none;html=1;strokeWidth=2;opacity=40;sketch=0;" parent="1" source="1BIaOTCcWGXi_crnkS1Q-37" target="1BIaOTCcWGXi_crnkS1Q-43" edge="1">
          <mxGeometry relative="1" as="geometry" />
        </mxCell>
        <mxCell id="1BIaOTCcWGXi_crnkS1Q-37" value="树立理想" style="shape=process;whiteSpace=wrap;html=1;backgroundOutline=1;fillColor=#d0cee2;strokeColor=#56517e;gradientColor=#ffffff;gradientDirection=north;" parent="1" vertex="1">
          <mxGeometry x="405" y="390" width="90" height="40" as="geometry" />
        </mxCell>
        <mxCell id="1BIaOTCcWGXi_crnkS1Q-38" style="edgeStyle=none;html=1;strokeWidth=2;opacity=40;sketch=0;" parent="1" source="1BIaOTCcWGXi_crnkS1Q-39" target="1BIaOTCcWGXi_crnkS1Q-43" edge="1">
          <mxGeometry relative="1" as="geometry" />
        </mxCell>
        <mxCell id="1BIaOTCcWGXi_crnkS1Q-39" value="精神解放" style="shape=process;whiteSpace=wrap;html=1;backgroundOutline=1;fillColor=#d0cee2;strokeColor=#56517e;gradientColor=#ffffff;gradientDirection=north;" parent="1" vertex="1">
          <mxGeometry x="515" y="390" width="90" height="40" as="geometry" />
        </mxCell>
        <mxCell id="1BIaOTCcWGXi_crnkS1Q-40" style="edgeStyle=none;html=1;strokeWidth=2;opacity=40;sketch=0;" parent="1" source="1BIaOTCcWGXi_crnkS1Q-41" target="1BIaOTCcWGXi_crnkS1Q-43" edge="1">
          <mxGeometry relative="1" as="geometry" />
        </mxCell>
        <mxCell id="1BIaOTCcWGXi_crnkS1Q-41" value="多元低迷" style="shape=process;whiteSpace=wrap;html=1;backgroundOutline=1;fillColor=#d0cee2;strokeColor=#56517e;gradientColor=#ffffff;gradientDirection=north;" parent="1" vertex="1">
          <mxGeometry x="625" y="390" width="110" height="40" as="geometry" />
        </mxCell>
        <mxCell id="1BIaOTCcWGXi_crnkS1Q-42" style="edgeStyle=none;html=1;strokeWidth=2;opacity=40;sketch=0;" parent="1" source="1BIaOTCcWGXi_crnkS1Q-43" target="1BIaOTCcWGXi_crnkS1Q-44" edge="1">
          <mxGeometry relative="1" as="geometry" />
        </mxCell>
        <mxCell id="1BIaOTCcWGXi_crnkS1Q-43" value="艺术创新&lt;span style=&quot;white-space: pre; font-size: 17px;&quot;&gt;	&lt;/span&gt;&lt;span style=&quot;white-space: pre; font-size: 17px;&quot;&gt;	&lt;/span&gt;&lt;span style=&quot;white-space: pre; font-size: 17px;&quot;&gt;	&lt;/span&gt;&lt;span style=&quot;white-space: pre; font-size: 17px;&quot;&gt;	&lt;/span&gt;价值分析：审美、审丑" style="rounded=1;whiteSpace=wrap;html=1;fillColor=#fad9d5;strokeColor=#ae4132;fontSize=17;" parent="1" vertex="1">
          <mxGeometry x="210" y="460" width="410" height="60" as="geometry" />
        </mxCell>
        <mxCell id="1BIaOTCcWGXi_crnkS1Q-44" value="文学史地位：大学精神回归、文化价值重塑" style="rounded=1;whiteSpace=wrap;html=1;fillColor=#647687;fontColor=#ffffff;strokeColor=#314354;fontSize=18;" parent="1" vertex="1">
          <mxGeometry x="210" y="560" width="410" height="60" as="geometry" />
        </mxCell>
      </root>
    </mxGraphModel>
  </diagram>
</mxfile>
